<?xml version="1.0" standalone="no"?>
<svg xmlns="http://www.w3.org/2000/svg" viewBox="0 0 51 70" width="51" height="70"><g fill="#ff6506" color="#ff6506" transform="translate(3.141 0) scale(1) "><svg width="44.0" height="44.0" x="0.0" y="0.0" viewBox="0 0 44 44"><path fill="currentColor" fill-rule="evenodd" d="M21.973 29.756l14.787 8.535-9.168 5.28-5.605-3.224-5.563 3.225-9.182-5.281 14.73-8.535zm0-15.005L44 27.454v6.492l-3.52 2.07-18.506-10.675L3.525 36.016l-3.52-2.042v-6.52L21.973 14.75zM21.97 0l22.026 12.689v10.576L21.984 10.591 0 23.294V12.703L21.97 0z"></path></svg></g><path fill="#00005f" fill-rule="nonzero" d="M12.89 8.59L12.89 8.59L12.91 10.44Q12.82 12.19 12.48 13.39Q12.14 14.59 11.16 15.58L11.16 15.58Q9.53 17.21 6.41 17.21L6.41 17.21Q2.74 17.21 1.37 16.24Q0 15.26 0 12.72L0 12.72L0 0.12L6.65 0.12Q9.53 0.12 11.16 1.75L11.16 1.75Q12.48 3.07 12.72 4.97L12.72 4.97Q12.89 6.31 12.89 8.59ZM8.83 13.18Q9.29 12.62 9.42 11.65Q9.55 10.68 9.55 8.62Q9.55 6.55 9.42 5.63Q9.29 4.70 8.83 4.15L8.83 4.15Q7.97 3.10 6.34 3.10L6.34 3.10L3.34 3.10L3.34 12.55Q3.34 13.51 3.98 13.87Q4.63 14.23 6.30 14.23Q7.97 14.23 8.83 13.18L8.83 13.18ZM23.30 1.56L28.78 17.21L25.30 17.21L24.34 14.26L18.60 14.26L17.66 17.21L14.18 17.21L19.66 1.56Q20.02 0.74 20.46 0.43Q20.90 0.12 21.55 0.12Q22.20 0.12 22.60 0.41Q22.99 0.70 23.30 1.56L23.30 1.56ZM19.44 11.45L23.57 11.45L21.55 4.68L19.44 11.45ZM46.80 0.12L50.28 0.12L45.70 17.21L42.91 17.21L39.77 6.84L36.62 17.21L33.84 17.21L29.28 0.12L32.76 0.12L35.40 10.90L38.02 1.99Q38.45 0 39.84 0L39.84 0Q40.54 0 40.90 0.52Q41.26 1.03 41.54 1.99L41.54 1.99L44.14 10.90L46.80 0.12Z" transform="translate(0, 52)"></path></svg>